<svg xmlns="http://www.w3.org/2000/svg" height="128" width="128" viewBox="0 0 128 128">
  <g>
    <path id="path1" transform="rotate(0,64,64) translate(30.541873216629,30) scale(2.125,2.125)" fill="#FC5600"
    d="M16.474981,28.557007C17.424995,28.557007 18.196998,29.32901 18.196998,30.278015 18.196998,31.231018 17.424995,32 16.474981,32 15.524999,32 14.752996,31.231018 14.752996,30.278015 14.752996,29.32901 15.524999,28.557007 16.474981,28.557007z M26.32499,23.192993C27.27601,23.192993 28.046001,23.964996 28.046001,24.914001 28.046001,25.865997 27.27601,26.636993 26.32499,26.636993 25.374002,26.636993 24.603982,25.865997 24.603982,24.914001 24.603982,23.964996 25.374002,23.192993 26.32499,23.192993z M5.103975,23.192017C6.0539877,23.192017 6.8249838,23.963013 6.8249838,24.912994 6.8249838,25.865997 6.0539877,26.636993 5.103975,26.636993 4.1539928,26.636993 3.3809824,25.865997 3.3809824,24.912994 3.3809824,23.963013 4.1539928,23.192017 5.103975,23.192017z M29.767986,14.894989C30.719005,14.894989 31.490001,15.666992 31.490001,16.615997 31.490001,17.569 30.719005,18.341003 29.767986,18.341003 28.818004,18.341003 28.044994,17.569 28.044994,16.615997 28.044994,15.666992 28.818004,14.894989 29.767986,14.894989z M2.257996,14.360992C3.5059826,14.360992 4.5149858,15.369019 4.5149858,16.617004 4.5149858,17.865997 3.5059826,18.873016 2.257996,18.873016 1.0099794,18.873016 -1.9095933E-07,17.865997 0,16.617004 -1.9095933E-07,15.369019 1.0099794,14.360992 2.257996,14.360992z M6.143984,4.8680115C7.6669948,4.8680115 8.9029877,6.1019897 8.9029877,7.6270142 8.9029877,9.1530151 7.6669948,10.389008 6.143984,10.389008 4.6189897,10.389008 3.3809824,9.1530151 3.3809824,7.6270142 3.3809824,6.1019897 4.6189897,4.8680115 6.143984,4.8680115z M26.32499,4.8349915C27.867992,4.8349915 29.118999,6.0859985 29.118999,7.6289978 29.118999,9.1719971 27.867992,10.421997 26.32499,10.421997 24.781991,10.421997 23.530984,9.1719971 23.530984,7.6289978 23.530984,6.0859985 24.781991,4.8349915 26.32499,4.8349915z M16.474981,0C18.092994,0 19.402991,1.3099976 19.402991,2.927002 19.402991,4.5450134 18.092994,5.8529968 16.474981,5.8529968 14.858983,5.8529968 13.548986,4.5450134 13.548986,2.927002 13.548986,1.3099976 14.858983,0 16.474981,0z" />
  </g>
</svg>
