<?xml version="1.0" encoding="utf-8"?>
<svg xmlns="http://www.w3.org/2000/svg" height="128" width="128" viewBox="0 0 128 128">
  <g>
    <path id="path1" transform="rotate(0,64,64) translate(8,20.7045228440961) scale(3.48975032942101,3.48975032942101)  " fill="#FF0202" d="M17.803933,15.423075C17.996623,15.422653 18.191526,15.477684 18.363645,15.59317 20.840632,17.260047 23.256645,17.269079 25.746633,15.624173 26.206623,15.318164 26.826649,15.444132 27.132648,15.906137 27.436633,16.367164 27.309649,16.988093 26.849628,17.292027 25.261647,18.341027 23.665641,18.866015 22.071649,18.866016 20.457637,18.866015 18.844632,18.327966 17.246641,17.253089 16.788634,16.944029 16.667663,16.3231 16.974639,15.864147 17.167777,15.578522 17.482782,15.42378 17.803933,15.423075z M6.5442448,13.033825C8.9420023,13.068637 11.027935,14.154032 12.770853,16.282955 13.121843,16.710952 13.058845,17.340948 12.631857,17.689945 12.444862,17.842944 12.221869,17.916944 11.998875,17.916944 11.708884,17.916944 11.421892,17.791945 11.224897,17.550946 9.3319521,15.238962 7.0200186,14.532967 4.1621008,15.391961 3.6301155,15.54696 3.0751314,15.249962 2.9171362,14.720966 2.759141,14.190969 3.0591326,13.634973 3.5881166,13.475974 4.6199932,13.167445 5.6059923,13.020203 6.5442448,13.033825z M26.187502,8.520956C27.072234,8.520956 27.956966,8.8076782 28.81745,9.3811231 29.27744,9.6880932 29.401438,10.309033 29.094443,10.767989 28.902448,11.056961 28.584454,11.212945 28.26146,11.212945 28.071465,11.212945 27.877468,11.157951 27.707472,11.044962 26.657493,10.344029 25.717511,10.344029 24.666533,11.044962 24.207541,11.349932 23.584554,11.226944 23.28056,10.767989 22.973566,10.309033 23.097564,9.6880932 23.557555,9.3811231 24.418037,8.8076782 25.30277,8.520956 26.187502,8.520956z M18.036109,8.1749444C18.920877,8.1750698 19.805394,8.4618311 20.665411,9.0348535 21.12542,9.3418655 21.249423,9.9618897 20.942417,10.421908 20.63641,10.880926 20.016398,11.003931 19.556389,10.698918 18.506369,9.9988909 17.56635,9.996891 16.51533,10.698918 16.344326,10.811923 16.151322,10.866925 15.961318,10.866925 15.638312,10.866925 15.320306,10.710919 15.128302,10.421908 14.821296,9.9618897 14.946298,9.3408651 15.405307,9.0348535 16.266324,8.4613309 17.151342,8.1748195 18.036109,8.1749444z M4.2298927,5.383975C4.5180283,5.3863211 4.802762,5.5127764 4.9979525,5.7540836 5.7959614,6.7350645 6.6909723,7.0110588 7.9019871,6.6560659 8.4349937,6.4980688 8.9890003,6.8010635 9.1450019,7.3310528 9.3010039,7.8620424 8.9980001,8.4170313 8.4689941,8.5740285 7.948988,8.727025 7.445982,8.8030238 6.9639759,8.8030238 5.6049595,8.8030238 4.4069452,8.1990356 3.4449329,7.0140591 3.097929,6.5850677 3.1629295,5.95508 3.5919352,5.6080866 3.7796249,5.4554024 4.0057878,5.3821497 4.2298927,5.383975z M21.821944,4.0197229C19.427955,4.0197229 17.020967,4.4777279 14.667979,5.3797369 14.248981,5.5407391 13.983982,5.9487429 14.008982,6.3947477 14.44998,14.104826 15.883973,19.826885 21.446946,22.685914 21.741944,22.837916 22.087943,22.854916 22.347941,22.722915 29.262908,19.28388 30.417902,13.695822 30.021904,6.364747 30.000904,5.9587431 29.762905,5.613739 29.418907,5.4817381 26.85992,4.5117283 24.303932,4.0197229 21.821944,4.0197229z M5.5949211,2.0004396C5.1383924,2.000494 4.6786919,2.0154314 4.2160692,2.0453062 3.7660723,2.075305 3.393074,2.3853006 3.2860746,2.8182945 1.4210854,10.313183 1.0940876,16.203096 5.5600615,20.584032 5.8010607,20.820028 6.1110582,20.936026 6.4110565,20.886027 9.4279146,20.396659 11.805811,19.295582 13.66175,17.525941L13.998512,17.190477 13.883232,16.90298C12.653238,13.758073 12.21949,10.140786 12.011992,6.5077486 11.946367,5.3544874 12.535348,4.2892733 13.510299,3.723443L13.599814,3.6761456 13.415876,3.5949621C10.959077,2.5355558,8.3340931,2.0001116,5.5949211,2.0004396z M5.6008692,0C9.1146035,-0.00016403198,12.462772,0.80394936,15.569004,2.4043007L16.235836,2.7703371 16.426464,2.7186394C18.251062,2.2463055 20.095116,2.0159369 21.952818,2.0274525 24.65493,2.0442028 27.385917,2.5727081 30.127904,3.6127186 31.212898,4.0237226 31.955894,5.0627337 32.019895,6.2567463 32.397893,13.282818 31.595897,20.35689 23.239937,24.513933 22.847939,24.708935 22.402941,24.812936 21.954943,24.812936 21.466946,24.812936 20.973948,24.692935 20.53195,24.463932 17.987587,23.156294 16.211736,21.326087 14.96393,19.165954L14.919895,19.087874 14.827442,19.174313C12.708079,21.113235 10.049724,22.321787 6.7310553,22.860998 6.5830555,22.884997 6.4320564,22.896997 6.2830572,22.896997 5.5100622,22.896997 4.741066,22.582002 4.1600695,22.01101 -1.287899,16.668089 -0.41190338,9.3971968 1.3450861,2.3363018 1.6620836,1.0553207 2.7630777,0.13633442 4.0850697,0.04933548 4.5935669,0.016460419 5.0989075,2.3841858E-05 5.6008692,0z" />
  </g>
</svg>
